<svg xmlns="http://www.w3.org/2000/svg" version="1.1" xmlns:xlink="http://www.w3.org/1999/xlink" xmlns:svgjs="http://svgjs.dev/svgjs" width="2000" height="1252" viewBox="0 0 2000 1252"><g transform="matrix(1,0,0,1,-1.2121212121212466,-2.01935483870966)"><svg viewBox="0 0 396 248" data-background-color="#ece6d6" preserveAspectRatio="xMidYMid meet" height="1252" width="2000" xmlns="http://www.w3.org/2000/svg" xmlns:xlink="http://www.w3.org/1999/xlink"><g id="tight-bounds" transform="matrix(1,0,0,1,0.2400000000000091,0.4000000000000057)"><svg viewBox="0 0 395.52 247.2" height="247.2" width="395.52"><g><svg></svg></g><g><svg viewBox="0 0 395.52 247.2" height="247.2" width="395.52"><g transform="matrix(1,0,0,1,75.54432000000001,50.41000152091256)"><svg viewBox="0 0 244.43135999999996 146.37999695817487" height="146.37999695817487" width="244.43135999999996"><g><svg viewBox="0 0 244.43135999999996 146.37999695817487" height="146.37999695817487" width="244.43135999999996"><g><svg viewBox="0 0 244.43136 146.3799969581749" height="146.37999695817487" width="244.43135999999996"><g><svg viewBox="0 0 244.43136 146.3799969581749" height="146.3799969581749" width="244.43136"><g id="textblocktransform"><svg viewBox="0 0 244.43136 146.3799969581749" height="146.3799969581749" width="244.43136" id="textblock"><g><svg viewBox="0 0 244.43136 146.3799969581749" height="146.3799969581749" width="244.43136"><g transform="matrix(1,0,0,1,0,0)"><svg width="244.43136" viewBox="1.75 -31.5 52.6 31.5" height="146.3799969581749" data-palette-color="#b2572b"><path d="M14.7 0L1.75 0 1.75-0.9 4.1-0.9Q4.8-0.9 4.8-1.5L4.8-1.5 4.8-30Q4.8-30.6 4.1-30.6L4.1-30.6 1.75-30.6 1.75-31.5 13.45-31.5Q17.2-31.5 19.88-29.45 22.55-27.4 22.55-24.15L22.55-24.15Q22.55-21.65 21.23-19.78 19.9-17.9 17.7-16.95L17.7-16.95Q20.85-16.25 22.83-14.1 24.8-11.95 24.8-8.38 24.8-4.8 21.85-2.4 18.9 0 14.7 0L14.7 0ZM14.45-16.05L14.45-16.05 8.9-16.05 8.9-1.4 14.45-1.4Q17.45-1.4 19.13-3.6 20.8-5.8 20.8-8.75 20.8-11.7 19.13-13.88 17.45-16.05 14.45-16.05ZM12.4-30.1L12.4-30.1 8.9-30.1 8.9-17.3 12.7-17.3Q15.65-17.3 17.1-19.3 18.55-21.3 18.55-23.98 18.55-26.65 17.05-28.38 15.55-30.1 12.4-30.1ZM54.35-0.9L54.35 0 44.1 0 44.1-0.9 47.35-0.9 43.85-10.55 32.85-10.55 29.35-0.9 32.6-0.9 32.6 0 25.05 0 25.05-0.9 26.9-0.9Q27.6-0.9 27.85-1.6L27.85-1.6 38.85-31.5 40.55-31.5 51.55-1.6Q51.8-0.9 52.5-0.9L52.5-0.9 54.35-0.9ZM43.35-11.95L38.4-25.6 33.4-11.95 43.35-11.95Z" opacity="1" transform="matrix(1,0,0,1,0,0)" fill="#ffffff" class="wordmark-text-0" data-fill-palette-color="primary" id="text-0"></path></svg></g></svg></g></svg></g></svg></g></svg></g></svg></g></svg></g><path d="M255.178 44.41L255.178 1.267 10.512 1.267 10.512 245.933 255.178 245.933 255.178 202.79 241.977 202.79 241.977 232.732 23.713 232.732 23.713 14.468 241.977 14.468 241.977 44.41Z" fill="#ffffff" stroke="transparent" data-fill-palette-color="tertiary"></path></svg></g><defs></defs></svg><rect width="395.52" height="247.2" fill="none" stroke="none" visibility="hidden"></rect></g></svg></g></svg>